<svg data-v-423bf9ae="" xmlns="http://www.w3.org/2000/svg" viewBox="0 0 147.50494447066262 199" class="iconAboveSlogan"><!----><!----><!----><g data-v-423bf9ae="" id="a9f01868-e8e7-4f77-8f0f-7c7611cd16d1" fill="#3C2A35" transform="matrix(5.940593835033989,0,0,5.940593835033989,-3.6831683983419197,97.42474988333998)"><path d="M4.62 14.22L4.62 14.22L4.62 14.22Q3.86 14.22 2.70 13.94L2.70 13.94L2.70 13.94Q1.97 14.14 1.34 14.14L1.34 14.14L1.34 14.14Q0.71 14.14 0.62 14.10L0.62 14.10L0.62 14.10Q0.71 13.26 1.45 9.96L1.45 9.96L1.45 9.96Q2.18 6.66 2.18 5.82L2.18 5.82L2.18 5.82Q2.18 5.66 2.00 5.38L2.00 5.38L2.00 5.38Q1.82 5.10 1.64 4.90L1.64 4.90L1.46 4.70L1.50 4.49L1.50 4.49Q3.33 4.12 5.45 4.12L5.45 4.12L5.45 4.12Q6.61 4.12 7.36 4.67L7.36 4.67L7.36 4.67Q8.11 5.22 8.11 6.22L8.11 6.22L8.11 6.22Q8.11 8.13 5.77 8.88L5.77 8.88L5.77 8.88Q6.71 8.99 7.34 9.58L7.34 9.58L7.34 9.58Q7.98 10.18 7.98 11.26L7.98 11.26L7.98 11.26Q7.98 12.57 7.03 13.40L7.03 13.40L7.03 13.40Q6.08 14.22 4.62 14.22ZM4.37 9.25L4.37 9.25L4.37 9.25Q3.98 9.25 3.67 9.32L3.67 9.32L3.67 9.32Q3.07 11.98 2.90 13.03L2.90 13.03L2.90 13.03Q3.25 13.27 4.00 13.27L4.00 13.27L4.00 13.27Q4.75 13.27 5.28 12.68L5.28 12.68L5.28 12.68Q5.81 12.08 5.81 10.96L5.81 10.96L5.81 10.96Q5.81 9.25 4.37 9.25ZM5.15 4.98L5.15 4.98L5.15 4.98Q4.62 4.98 4.52 5.08L4.52 5.08L4.52 5.08Q4.33 6.34 3.88 8.39L3.88 8.39L3.88 8.39Q4.44 8.39 4.66 8.32L4.66 8.32L4.66 8.32Q4.89 8.25 5.06 8.13L5.06 8.13L5.06 8.13Q5.24 8.02 5.46 7.78L5.46 7.78L5.46 7.78Q5.95 7.27 5.95 6.13L5.95 6.13L5.95 6.13Q5.95 4.98 5.15 4.98ZM9.11 13.87L9.11 13.87L9.11 13.87Q9.02 14.18 8.67 14.18L8.67 14.18L8.67 14.18Q8.33 14.18 7.90 13.80L7.90 13.80L7.90 13.80Q8.32 12.57 9.67 9.84L9.67 9.84L9.67 9.84Q11.03 7.10 11.44 5.74L11.44 5.74L11.44 5.74Q11.49 5.52 11.49 5.43L11.49 5.43L11.49 5.43Q11.49 5.22 11.19 4.79L11.19 4.79L11.07 4.63L11.10 4.45L11.10 4.45Q12.29 4.12 13.73 4.12L13.73 4.12L14.59 4.17L14.59 4.17Q14.74 4.38 14.83 4.82L14.83 4.82L14.83 4.82Q15.05 5.88 15.05 10.29L15.05 10.29L15.05 10.29Q15.05 12.00 15.34 12.70L15.34 12.70L15.34 12.70Q15.46 12.96 15.57 12.96L15.57 12.96L15.57 12.96Q15.68 12.96 16.25 12.68L16.25 12.68L16.44 12.60L16.72 13.10L16.72 13.10Q16.18 13.62 15.53 13.92L15.53 13.92L15.53 13.92Q14.88 14.22 14.34 14.22L14.34 14.22L14.34 14.22Q12.92 14.22 12.92 12.03L12.92 12.03L12.92 10.92L12.92 10.92Q12.56 10.84 11.82 10.84L11.82 10.84L11.82 10.84Q11.07 10.84 10.19 10.98L10.19 10.98L10.19 10.98Q9.49 12.60 9.11 13.87ZM10.64 9.97L12.95 9.97L12.96 8.34L12.96 8.34Q12.96 6.22 12.78 5.46L12.78 5.46L12.78 5.46Q12.67 5.46 12.61 5.49L12.61 5.49L12.61 5.49Q12.22 6.57 11.88 7.32L11.88 7.32L11.88 7.32Q11.54 8.06 11.14 8.91L11.14 8.91L11.14 8.91Q10.74 9.76 10.64 9.97L10.64 9.97ZM17.32 14.13L17.32 14.13L17.32 14.13Q17.05 14.13 16.95 14.11L16.95 14.11L16.95 14.11Q17.05 13.30 17.82 9.99L17.82 9.99L17.82 9.99Q18.58 6.68 18.58 5.80L18.58 5.80L18.58 5.80Q18.58 5.63 18.38 5.36L18.38 5.36L18.38 5.36Q18.19 5.08 17.99 4.90L17.99 4.90L17.81 4.70L17.85 4.48L17.85 4.48Q19.77 4.12 21.91 4.12L21.91 4.12L21.91 4.12Q24.49 4.12 24.49 6.15L24.49 6.15L24.49 6.15Q24.49 7.14 23.99 7.96L23.99 7.96L23.99 7.96Q23.49 8.78 22.44 9.24L22.44 9.24L22.44 9.24Q23.23 11.86 23.79 12.63L23.79 12.63L23.79 12.63Q24.04 12.95 24.18 12.95L24.18 12.95L24.18 12.95Q24.43 12.95 24.96 12.70L24.96 12.70L25.13 12.61L25.45 13.13L25.45 13.13Q24.93 13.61 24.26 13.92L24.26 13.92L24.26 13.92Q23.58 14.22 22.98 14.22L22.98 14.22L22.98 14.22Q22.39 14.22 22.00 13.71L22.00 13.71L22.00 13.71Q21.62 13.20 21.30 12.21L21.30 12.21L21.30 12.21Q20.99 11.21 20.66 9.66L20.66 9.66L20.66 9.66Q20.22 9.69 19.98 9.69L19.98 9.69L19.98 9.69Q19.26 12.75 19.19 13.83L19.19 13.83L19.19 13.83Q18.59 14.13 17.32 14.13ZM20.19 8.74L20.52 8.74L20.52 8.74Q21.36 8.74 21.85 7.99L21.85 7.99L21.85 7.99Q22.33 7.24 22.33 6.20L22.33 6.20L22.33 6.20Q22.33 5.66 22.13 5.32L22.13 5.32L22.13 5.32Q21.94 4.98 21.55 4.98L21.55 4.98L21.55 4.98Q21.38 4.98 21.15 5.03L21.15 5.03L21.15 5.03Q20.92 5.08 20.92 5.10L20.92 5.10L20.92 5.10Q20.69 6.54 20.19 8.74L20.19 8.74Z"></path></g><defs data-v-423bf9ae=""><linearGradient data-v-423bf9ae="" gradientTransform="rotate(25)" id="42d3e440-f190-4faa-87f8-a0c14af0f6d6" x1="0%" y1="0%" x2="100%" y2="0%"><stop data-v-423bf9ae="" offset="0%" style="stop-color: rgb(165, 70, 101); stop-opacity: 1;"></stop><stop data-v-423bf9ae="" offset="100%" style="stop-color: rgb(173, 189, 224); stop-opacity: 1;"></stop></linearGradient></defs><g data-v-423bf9ae="" id="f02e8420-b7f3-454e-a30e-909688a98cc7" transform="matrix(1.1,0,0,1.1,18.612398147583,-0.5000000000000071)" stroke="none" fill="url(#42d3e440-f190-4faa-87f8-a0c14af0f6d6)"><path d="M89.654.5l-6.322.069s-8.452 20.399-16.91 40.895L50.255.925 34.171 41.249C25.742 20.828 17.35.569 17.35.569L11.027.5l19.697 49.391L10.938 99.5l6.327-.07s8.452-20.396 16.911-40.894l16.163 40.539L66.425 58.75c8.427 20.422 16.818 40.68 16.818 40.68l6.327.07-19.701-49.39L89.654.5zM50.338 80.691c-1.958-4.908-7.017-17.239-12.604-30.799 5.554-13.469 10.572-25.701 12.521-30.583 1.958 4.908 7.021 17.239 12.604 30.798-5.55 13.471-10.568 25.702-12.521 30.584z"></path></g><!----><g data-v-423bf9ae="" id="b2bd3708-7149-4112-b341-369ab0ad07c5" fill="#3C2A35" transform="matrix(0.3677204790048505,0,0,0.3677204790048505,18.818424528186654,225.32178941330199)"><path d="M7.10 15.68L6.38 13.24L2.18 13.24L1.47 15.68L0.21 15.68L3.18 5.88L5.39 5.88L8.36 15.68L7.10 15.68ZM4.37 6.38L4.20 6.38L2.51 12.15L6.06 12.15L4.37 6.38ZM33.19 14.62L33.19 18.48L32.10 18.48L32.10 8.74L33.19 8.74L33.19 9.83L33.36 9.83L33.36 9.83Q33.73 9.20 34.37 8.87L34.37 8.87L34.37 8.87Q35.01 8.54 35.77 8.54L35.77 8.54L35.77 8.54Q36.41 8.54 36.99 8.78L36.99 8.78L36.99 8.78Q37.56 9.02 38.00 9.46L38.00 9.46L38.00 9.46Q38.44 9.91 38.70 10.57L38.70 10.57L38.70 10.57Q38.96 11.23 38.96 12.07L38.96 12.07L38.96 12.35L38.96 12.35Q38.96 13.20 38.71 13.86L38.71 13.86L38.71 13.86Q38.46 14.52 38.02 14.97L38.02 14.97L38.02 14.97Q37.58 15.41 36.99 15.64L36.99 15.64L36.99 15.64Q36.40 15.88 35.74 15.88L35.74 15.88L35.74 15.88Q35.41 15.88 35.06 15.80L35.06 15.80L35.06 15.80Q34.71 15.72 34.39 15.56L34.39 15.56L34.39 15.56Q34.08 15.40 33.81 15.17L33.81 15.17L33.81 15.17Q33.54 14.94 33.36 14.62L33.36 14.62L33.19 14.62ZM35.52 14.84L35.52 14.84L35.52 14.84Q36.02 14.84 36.44 14.66L36.44 14.66L36.44 14.66Q36.86 14.49 37.18 14.17L37.18 14.17L37.18 14.17Q37.49 13.85 37.67 13.38L37.67 13.38L37.67 13.38Q37.84 12.92 37.84 12.35L37.84 12.35L37.84 12.07L37.84 12.07Q37.84 11.51 37.67 11.05L37.67 11.05L37.67 11.05Q37.49 10.60 37.18 10.27L37.18 10.27L37.18 10.27Q36.86 9.94 36.44 9.76L36.44 9.76L36.44 9.76Q36.01 9.58 35.52 9.58L35.52 9.58L35.52 9.58Q35.03 9.58 34.61 9.77L34.61 9.77L34.61 9.77Q34.19 9.95 33.87 10.29L33.87 10.29L33.87 10.29Q33.56 10.63 33.38 11.09L33.38 11.09L33.38 11.09Q33.19 11.56 33.19 12.12L33.19 12.12L33.19 12.29L33.19 12.29Q33.19 12.87 33.38 13.33L33.38 13.33L33.38 13.33Q33.56 13.80 33.87 14.14L33.87 14.14L33.87 14.14Q34.19 14.48 34.61 14.66L34.61 14.66L34.61 14.66Q35.03 14.84 35.52 14.84ZM47.92 15.68L47.92 14.67L50.44 14.67L50.44 6.89L48.01 6.89L48.01 5.88L51.53 5.88L51.53 14.67L54.05 14.67L54.05 15.68L47.92 15.68ZM68.53 14.59L68.53 14.50L68.36 14.50L68.36 14.50Q68.03 15.20 67.43 15.54L67.43 15.54L67.43 15.54Q66.84 15.88 66.18 15.88L66.18 15.88L66.18 15.88Q65.49 15.88 64.90 15.64L64.90 15.64L64.90 15.64Q64.32 15.41 63.88 14.96L63.88 14.96L63.88 14.96Q63.43 14.50 63.18 13.85L63.18 13.85L63.18 13.85Q62.93 13.19 62.93 12.32L62.93 12.32L62.93 12.10L62.93 12.10Q62.93 11.24 63.18 10.58L63.18 10.58L63.18 10.58Q63.43 9.93 63.88 9.47L63.88 9.47L63.88 9.47Q64.32 9.02 64.90 8.78L64.90 8.78L64.90 8.78Q65.49 8.54 66.15 8.54L66.15 8.54L66.15 8.54Q66.86 8.54 67.44 8.86L67.44 8.86L67.44 8.86Q68.03 9.17 68.36 9.83L68.36 9.83L68.53 9.83L68.53 8.74L69.62 8.74L69.62 14.25L69.62 14.25Q69.62 14.67 70 14.67L70 14.67L70.35 14.67L70.35 15.68L69.61 15.68L69.61 15.68Q69.13 15.68 68.83 15.37L68.83 15.37L68.83 15.37Q68.53 15.06 68.53 14.59L68.53 14.59ZM66.29 14.84L66.29 14.84L66.29 14.84Q66.78 14.84 67.19 14.66L67.19 14.66L67.19 14.66Q67.61 14.48 67.90 14.14L67.90 14.14L67.90 14.14Q68.19 13.80 68.36 13.33L68.36 13.33L68.36 13.33Q68.53 12.87 68.53 12.29L68.53 12.29L68.53 12.12L68.53 12.12Q68.53 11.56 68.36 11.09L68.36 11.09L68.36 11.09Q68.19 10.63 67.89 10.29L67.89 10.29L67.89 10.29Q67.59 9.95 67.18 9.77L67.18 9.77L67.18 9.77Q66.77 9.58 66.29 9.58L66.29 9.58L66.29 9.58Q65.80 9.58 65.39 9.76L65.39 9.76L65.39 9.76Q64.99 9.94 64.69 10.27L64.69 10.27L64.69 10.27Q64.39 10.60 64.22 11.07L64.22 11.07L64.22 11.07Q64.05 11.54 64.05 12.10L64.05 12.10L64.05 12.32L64.05 12.32Q64.05 13.51 64.67 14.17L64.67 14.17L64.67 14.17Q65.30 14.84 66.29 14.84ZM84.46 12.96L85.55 13.22L85.55 13.22Q85.44 13.79 85.17 14.28L85.17 14.28L85.17 14.28Q84.90 14.77 84.48 15.13L84.48 15.13L84.48 15.13Q84.06 15.48 83.50 15.68L83.50 15.68L83.50 15.68Q82.94 15.88 82.25 15.88L82.25 15.88L82.25 15.88Q81.52 15.88 80.87 15.64L80.87 15.64L80.87 15.64Q80.22 15.40 79.73 14.95L79.73 14.95L79.73 14.95Q79.24 14.49 78.95 13.83L78.95 13.83L78.95 13.83Q78.67 13.17 78.67 12.32L78.67 12.32L78.67 12.15L78.67 12.15Q78.67 11.31 78.95 10.64L78.95 10.64L78.95 10.64Q79.24 9.97 79.73 9.51L79.73 9.51L79.73 9.51Q80.22 9.04 80.87 8.79L80.87 8.79L80.87 8.79Q81.52 8.54 82.25 8.54L82.25 8.54L82.25 8.54Q82.91 8.54 83.47 8.74L83.47 8.74L83.47 8.74Q84.03 8.93 84.45 9.29L84.45 9.29L84.45 9.29Q84.88 9.65 85.16 10.14L85.16 10.14L85.16 10.14Q85.43 10.63 85.53 11.20L85.53 11.20L84.43 11.45L84.43 11.45Q84.39 11.09 84.23 10.74L84.23 10.74L84.23 10.74Q84.07 10.40 83.80 10.14L83.80 10.14L83.80 10.14Q83.52 9.88 83.13 9.73L83.13 9.73L83.13 9.73Q82.74 9.58 82.22 9.58L82.22 9.58L82.22 9.58Q81.72 9.58 81.28 9.77L81.28 9.77L81.28 9.77Q80.84 9.95 80.50 10.30L80.50 10.30L80.50 10.30Q80.16 10.64 79.98 11.12L79.98 11.12L79.98 11.12Q79.79 11.59 79.79 12.15L79.79 12.15L79.79 12.32L79.79 12.32Q79.79 12.91 79.98 13.38L79.98 13.38L79.98 13.38Q80.16 13.85 80.50 14.17L80.50 14.17L80.50 14.17Q80.84 14.49 81.28 14.66L81.28 14.66L81.28 14.66Q81.73 14.84 82.25 14.84L82.25 14.84L82.25 14.84Q82.77 14.84 83.15 14.68L83.15 14.68L83.15 14.68Q83.54 14.52 83.81 14.26L83.81 14.26L83.81 14.26Q84.08 14 84.25 13.66L84.25 13.66L84.25 13.66Q84.41 13.33 84.46 12.96L84.46 12.96ZM101.02 12.54L95.42 12.54L95.42 12.54Q95.47 13.58 96.07 14.21L96.07 14.21L96.07 14.21Q96.67 14.84 97.75 14.84L97.75 14.84L97.75 14.84Q98.24 14.84 98.60 14.73L98.60 14.73L98.60 14.73Q98.97 14.62 99.22 14.42L99.22 14.42L99.22 14.42Q99.48 14.22 99.64 13.96L99.64 13.96L99.64 13.96Q99.81 13.71 99.90 13.41L99.90 13.41L100.94 13.69L100.94 13.69Q100.65 14.66 99.86 15.27L99.86 15.27L99.86 15.27Q99.06 15.88 97.72 15.88L97.72 15.88L97.72 15.88Q96.98 15.88 96.36 15.62L96.36 15.62L96.36 15.62Q95.73 15.36 95.28 14.88L95.28 14.88L95.28 14.88Q94.84 14.41 94.58 13.75L94.58 13.75L94.58 13.75Q94.33 13.09 94.33 12.29L94.33 12.29L94.33 11.96L94.33 11.96Q94.33 11.23 94.59 10.60L94.59 10.60L94.59 10.60Q94.85 9.97 95.31 9.51L95.31 9.51L95.31 9.51Q95.77 9.06 96.40 8.80L96.40 8.80L96.40 8.80Q97.02 8.54 97.75 8.54L97.75 8.54L97.75 8.54Q98.60 8.54 99.22 8.86L99.22 8.86L99.22 8.86Q99.85 9.17 100.25 9.63L100.25 9.63L100.25 9.63Q100.65 10.09 100.84 10.64L100.84 10.64L100.84 10.64Q101.02 11.19 101.02 11.65L101.02 11.65L101.02 12.54ZM97.75 9.58L97.75 9.58L97.75 9.58Q97.29 9.58 96.89 9.72L96.89 9.72L96.89 9.72Q96.49 9.87 96.19 10.14L96.19 10.14L96.19 10.14Q95.89 10.40 95.70 10.76L95.70 10.76L95.70 10.76Q95.51 11.12 95.45 11.54L95.45 11.54L99.93 11.54L99.93 11.54Q99.90 11.09 99.72 10.72L99.72 10.72L99.72 10.72Q99.53 10.36 99.22 10.11L99.22 10.11L99.22 10.11Q98.92 9.86 98.54 9.72L98.54 9.72L98.54 9.72Q98.15 9.58 97.75 9.58ZM125.69 9.74L125.69 8.74L127.83 8.74L127.83 6.97L127.83 6.97Q127.83 6.50 128.13 6.19L128.13 6.19L128.13 6.19Q128.44 5.88 128.91 5.88L128.91 5.88L131.66 5.88L131.66 6.89L129.30 6.89L129.30 6.89Q128.93 6.89 128.93 7.31L128.93 7.31L128.93 8.74L131.82 8.74L131.82 9.74L128.93 9.74L128.93 15.68L127.83 15.68L127.83 9.74L125.69 9.74ZM147.88 12.12L147.88 12.29L147.88 12.29Q147.88 13.16 147.59 13.82L147.59 13.82L147.59 13.82Q147.31 14.49 146.83 14.95L146.83 14.95L146.83 14.95Q146.36 15.40 145.72 15.64L145.72 15.64L145.72 15.64Q145.08 15.88 144.40 15.88L144.40 15.88L144.40 15.88Q143.70 15.88 143.07 15.64L143.07 15.64L143.07 15.64Q142.44 15.40 141.96 14.95L141.96 14.95L141.96 14.95Q141.48 14.49 141.20 13.82L141.20 13.82L141.20 13.82Q140.91 13.16 140.91 12.29L140.91 12.29L140.91 12.12L140.91 12.12Q140.91 11.27 141.20 10.61L141.20 10.61L141.20 10.61Q141.48 9.94 141.97 9.48L141.97 9.48L141.97 9.48Q142.45 9.02 143.08 8.78L143.08 8.78L143.08 8.78Q143.71 8.54 144.40 8.54L144.40 8.54L144.40 8.54Q145.08 8.54 145.71 8.78L145.71 8.78L145.71 8.78Q146.34 9.02 146.82 9.48L146.82 9.48L146.82 9.48Q147.31 9.94 147.59 10.61L147.59 10.61L147.59 10.61Q147.88 11.27 147.88 12.12L147.88 12.12ZM144.40 14.84L144.40 14.84L144.40 14.84Q144.90 14.84 145.33 14.66L145.33 14.66L145.33 14.66Q145.75 14.49 146.08 14.15L146.08 14.15L146.08 14.15Q146.40 13.82 146.58 13.35L146.58 13.35L146.58 13.35Q146.76 12.88 146.76 12.29L146.76 12.29L146.76 12.12L146.76 12.12Q146.76 11.56 146.58 11.09L146.58 11.09L146.58 11.09Q146.40 10.63 146.08 10.29L146.08 10.29L146.08 10.29Q145.75 9.95 145.32 9.77L145.32 9.77L145.32 9.77Q144.89 9.58 144.40 9.58L144.40 9.58L144.40 9.58Q143.91 9.58 143.47 9.77L143.47 9.77L143.47 9.77Q143.04 9.95 142.72 10.29L142.72 10.29L142.72 10.29Q142.39 10.63 142.21 11.09L142.21 11.09L142.21 11.09Q142.03 11.56 142.03 12.12L142.03 12.12L142.03 12.29L142.03 12.29Q142.03 12.88 142.21 13.35L142.21 13.35L142.21 13.35Q142.39 13.82 142.72 14.15L142.72 14.15L142.72 14.15Q143.04 14.49 143.47 14.66L143.47 14.66L143.47 14.66Q143.89 14.84 144.40 14.84ZM156.51 9.74L156.51 8.74L159.03 8.74L159.03 9.66L159.19 9.66L159.19 9.66Q159.46 9.09 159.95 8.81L159.95 8.81L159.95 8.81Q160.44 8.54 161.07 8.54L161.07 8.54L161.07 8.54Q162.12 8.54 162.76 9.23L162.76 9.23L162.76 9.23Q163.41 9.91 163.45 11.23L163.45 11.23L162.30 11.40L162.30 11.40Q162.30 10.43 161.84 10.00L161.84 10.00L161.84 10.00Q161.38 9.58 160.71 9.58L160.71 9.58L160.71 9.58Q160.27 9.58 159.96 9.74L159.96 9.74L159.96 9.74Q159.64 9.91 159.43 10.21L159.43 10.21L159.43 10.21Q159.22 10.50 159.12 10.89L159.12 10.89L159.12 10.89Q159.03 11.28 159.03 11.73L159.03 11.73L159.03 14.67L160.79 14.67L160.79 15.68L156.34 15.68L156.34 14.67L157.93 14.67L157.93 9.74L156.51 9.74ZM187.96 9.74L187.96 8.74L190.11 8.74L190.11 6.97L190.11 6.97Q190.11 6.50 190.41 6.19L190.41 6.19L190.41 6.19Q190.71 5.88 191.18 5.88L191.18 5.88L193.93 5.88L193.93 6.89L191.58 6.89L191.58 6.89Q191.20 6.89 191.20 7.31L191.20 7.31L191.20 8.74L194.10 8.74L194.10 9.74L191.20 9.74L191.20 15.68L190.11 15.68L190.11 9.74L187.96 9.74ZM203.21 9.74L203.21 8.74L205.73 8.74L205.73 9.66L205.90 9.66L205.90 9.66Q206.16 9.09 206.65 8.81L206.65 8.81L206.65 8.81Q207.14 8.54 207.77 8.54L207.77 8.54L207.77 8.54Q208.82 8.54 209.47 9.23L209.47 9.23L209.47 9.23Q210.11 9.91 210.15 11.23L210.15 11.23L209.01 11.40L209.01 11.40Q209.01 10.43 208.54 10.00L208.54 10.00L208.54 10.00Q208.08 9.58 207.41 9.58L207.41 9.58L207.41 9.58Q206.98 9.58 206.66 9.74L206.66 9.74L206.66 9.74Q206.35 9.91 206.14 10.21L206.14 10.21L206.14 10.21Q205.93 10.50 205.83 10.89L205.83 10.89L205.83 10.89Q205.73 11.28 205.73 11.73L205.73 11.73L205.73 14.67L207.49 14.67L207.49 15.68L203.04 15.68L203.04 14.67L204.64 14.67L204.64 9.74L203.21 9.74ZM221.33 6.66L221.33 6.66L221.33 6.66Q221.33 6.26 221.61 5.97L221.61 5.97L221.61 5.97Q221.90 5.68 222.31 5.68L222.31 5.68L222.31 5.68Q222.71 5.68 223.00 5.97L223.00 5.97L223.00 5.97Q223.29 6.26 223.29 6.66L223.29 6.66L223.29 6.66Q223.29 7.07 223.00 7.36L223.00 7.36L223.00 7.36Q222.71 7.64 222.31 7.64L222.31 7.64L222.31 7.64Q221.90 7.64 221.61 7.36L221.61 7.36L221.61 7.36Q221.33 7.07 221.33 6.66ZM219.34 15.68L219.34 14.67L221.77 14.67L221.77 9.74L219.59 9.74L219.59 8.74L222.87 8.74L222.87 14.67L225.13 14.67L225.13 15.68L219.34 15.68ZM241.14 12.54L235.54 12.54L235.54 12.54Q235.58 13.58 236.18 14.21L236.18 14.21L236.18 14.21Q236.78 14.84 237.86 14.84L237.86 14.84L237.86 14.84Q238.35 14.84 238.71 14.73L238.71 14.73L238.71 14.73Q239.08 14.62 239.34 14.42L239.34 14.42L239.34 14.42Q239.60 14.22 239.76 13.96L239.76 13.96L239.76 13.96Q239.92 13.71 240.02 13.41L240.02 13.41L241.05 13.69L241.05 13.69Q240.76 14.66 239.97 15.27L239.97 15.27L239.97 15.27Q239.18 15.88 237.83 15.88L237.83 15.88L237.83 15.88Q237.09 15.88 236.47 15.62L236.47 15.62L236.47 15.62Q235.84 15.36 235.40 14.88L235.40 14.88L235.40 14.88Q234.95 14.41 234.70 13.75L234.70 13.75L234.70 13.75Q234.44 13.09 234.44 12.29L234.44 12.29L234.44 11.96L234.44 11.96Q234.44 11.23 234.70 10.60L234.70 10.60L234.70 10.60Q234.96 9.97 235.42 9.51L235.42 9.51L235.42 9.51Q235.89 9.06 236.51 8.80L236.51 8.80L236.51 8.80Q237.13 8.54 237.86 8.54L237.86 8.54L237.86 8.54Q238.71 8.54 239.34 8.86L239.34 8.86L239.34 8.86Q239.96 9.17 240.36 9.63L240.36 9.63L240.36 9.63Q240.76 10.09 240.95 10.64L240.95 10.64L240.95 10.64Q241.14 11.19 241.14 11.65L241.14 11.65L241.14 12.54ZM237.86 9.58L237.86 9.58L237.86 9.58Q237.40 9.58 237.00 9.72L237.00 9.72L237.00 9.72Q236.60 9.87 236.30 10.14L236.30 10.14L236.30 10.14Q236.00 10.40 235.81 10.76L235.81 10.76L235.81 10.76Q235.62 11.12 235.56 11.54L235.56 11.54L240.04 11.54L240.04 11.54Q240.02 11.09 239.83 10.72L239.83 10.72L239.83 10.72Q239.64 10.36 239.34 10.11L239.34 10.11L239.34 10.11Q239.04 9.86 238.65 9.72L238.65 9.72L238.65 9.72Q238.27 9.58 237.86 9.58ZM251.40 12.07L251.40 15.68L250.31 15.68L250.31 8.74L251.40 8.74L251.40 9.91L251.57 9.91L251.57 9.91Q252.21 8.54 253.81 8.54L253.81 8.54L253.81 8.54Q255.01 8.54 255.72 9.29L255.72 9.29L255.72 9.29Q256.44 10.04 256.44 11.54L256.44 11.54L256.44 15.68L255.35 15.68L255.35 11.76L255.35 11.76Q255.35 10.67 254.86 10.12L254.86 10.12L254.86 10.12Q254.37 9.58 253.53 9.58L253.53 9.58L253.53 9.58Q252.53 9.58 251.97 10.25L251.97 10.25L251.97 10.25Q251.40 10.93 251.40 12.07L251.40 12.07ZM271.25 15.68L271.25 14.62L271.08 14.62L271.08 14.62Q270.91 14.94 270.66 15.18L270.66 15.18L270.66 15.18Q270.40 15.41 270.10 15.57L270.10 15.57L270.10 15.57Q269.79 15.72 269.46 15.80L269.46 15.80L269.46 15.80Q269.12 15.88 268.81 15.88L268.81 15.88L268.81 15.88Q268.11 15.88 267.51 15.64L267.51 15.64L267.51 15.64Q266.91 15.40 266.46 14.95L266.46 14.95L266.46 14.95Q266.00 14.50 265.74 13.84L265.74 13.84L265.74 13.84Q265.48 13.17 265.48 12.32L265.48 12.32L265.48 12.10L265.48 12.10Q265.48 11.26 265.75 10.59L265.75 10.59L265.75 10.59Q266.01 9.93 266.46 9.47L266.46 9.47L266.46 9.47Q266.91 9.02 267.51 8.78L267.51 8.78L267.51 8.78Q268.11 8.54 268.79 8.54L268.79 8.54L268.79 8.54Q269.50 8.54 270.12 8.86L270.12 8.86L270.12 8.86Q270.75 9.17 271.08 9.83L271.08 9.83L271.25 9.83L271.25 5.88L272.34 5.88L272.34 15.68L271.25 15.68ZM268.93 14.84L268.93 14.84L268.93 14.84Q269.42 14.84 269.84 14.66L269.84 14.66L269.84 14.66Q270.26 14.48 270.57 14.14L270.57 14.14L270.57 14.14Q270.89 13.80 271.07 13.33L271.07 13.33L271.07 13.33Q271.25 12.87 271.25 12.29L271.25 12.29L271.25 12.12L271.25 12.12Q271.25 11.56 271.07 11.09L271.07 11.09L271.07 11.09Q270.89 10.63 270.57 10.29L270.57 10.29L270.57 10.29Q270.26 9.95 269.83 9.77L269.83 9.77L269.83 9.77Q269.40 9.58 268.93 9.58L268.93 9.58L268.93 9.58Q268.44 9.58 268.01 9.76L268.01 9.76L268.01 9.76Q267.58 9.94 267.27 10.28L267.27 10.28L267.27 10.28Q266.95 10.61 266.78 11.07L266.78 11.07L266.78 11.07Q266.60 11.54 266.60 12.10L266.60 12.10L266.60 12.32L266.60 12.32Q266.60 12.91 266.78 13.37L266.78 13.37L266.78 13.37Q266.95 13.83 267.27 14.16L267.27 14.16L267.27 14.16Q267.58 14.49 268.00 14.66L268.00 14.66L268.00 14.66Q268.42 14.84 268.93 14.84ZM282.88 10.53L282.88 10.53L282.88 10.53Q282.88 11.03 283.31 11.30L283.31 11.30L283.31 11.30Q283.74 11.56 284.87 11.65L284.87 11.65L284.87 11.65Q286.09 11.75 286.73 12.23L286.73 12.23L286.73 12.23Q287.36 12.71 287.36 13.64L287.36 13.64L287.36 13.72L287.36 13.72Q287.36 14.22 287.16 14.62L287.16 14.62L287.16 14.62Q286.96 15.02 286.60 15.30L286.60 15.30L286.60 15.30Q286.24 15.58 285.73 15.73L285.73 15.73L285.73 15.73Q285.22 15.88 284.62 15.88L284.62 15.88L284.62 15.88Q283.81 15.88 283.23 15.66L283.23 15.66L283.23 15.66Q282.65 15.44 282.26 15.08L282.26 15.08L282.26 15.08Q281.88 14.73 281.68 14.27L281.68 14.27L281.68 14.27Q281.48 13.82 281.46 13.36L281.46 13.36L282.49 13.10L282.49 13.10Q282.56 13.90 283.11 14.38L283.11 14.38L283.11 14.38Q283.65 14.87 284.56 14.87L284.56 14.87L284.56 14.87Q285.33 14.87 285.80 14.57L285.80 14.57L285.80 14.57Q286.27 14.27 286.27 13.72L286.27 13.72L286.27 13.72Q286.27 13.13 285.81 12.88L285.81 12.88L285.81 12.88Q285.35 12.63 284.31 12.56L284.31 12.56L284.31 12.56Q283.11 12.47 282.46 12.00L282.46 12.00L282.46 12.00Q281.82 11.52 281.82 10.61L281.82 10.61L281.82 10.53L281.82 10.53Q281.82 10.04 282.03 9.67L282.03 9.67L282.03 9.67Q282.24 9.30 282.60 9.04L282.60 9.04L282.60 9.04Q282.95 8.79 283.40 8.67L283.40 8.67L283.40 8.67Q283.85 8.54 284.34 8.54L284.34 8.54L284.34 8.54Q285.03 8.54 285.54 8.73L285.54 8.73L285.54 8.73Q286.06 8.92 286.41 9.22L286.41 9.22L286.41 9.22Q286.76 9.52 286.95 9.91L286.95 9.91L286.95 9.91Q287.14 10.30 287.20 10.70L287.20 10.70L286.16 10.95L286.16 10.95Q286.09 10.28 285.62 9.90L285.62 9.90L285.62 9.90Q285.15 9.52 284.40 9.52L284.40 9.52L284.40 9.52Q284.10 9.52 283.83 9.58L283.83 9.58L283.83 9.58Q283.56 9.65 283.35 9.77L283.35 9.77L283.35 9.77Q283.14 9.90 283.01 10.09L283.01 10.09L283.01 10.09Q282.88 10.28 282.88 10.53ZM299.10 14.90L299.10 14.90L299.10 14.90Q299.10 14.49 299.38 14.20L299.38 14.20L299.38 14.20Q299.67 13.92 300.08 13.92L300.08 13.92L300.08 13.92Q300.48 13.92 300.77 14.20L300.77 14.20L300.77 14.20Q301.06 14.49 301.06 14.90L301.06 14.90L301.06 14.90Q301.06 15.30 300.77 15.59L300.77 15.59L300.77 15.59Q300.48 15.88 300.08 15.88L300.08 15.88L300.08 15.88Q299.67 15.88 299.38 15.59L299.38 15.59L299.38 15.59Q299.10 15.30 299.10 14.90Z"></path></g></svg>