<svg data-v-fde0c5aa="" xmlns="http://www.w3.org/2000/svg" viewBox="0 0 300 300" class="icon"><!----><defs data-v-fde0c5aa=""><!----></defs><rect data-v-fde0c5aa="" fill="#EDECF4" x="0" y="0" width="300px" height="300px" class="logo-background-square"></rect><!----><defs data-v-fde0c5aa=""><linearGradient data-v-fde0c5aa="" gradientTransform="rotate(25)" id="3920bcec-cb67-40a2-b4b5-68c99fa65ef5" x1="0%" y1="0%" x2="100%" y2="0%"><stop data-v-fde0c5aa="" offset="0%" stop-color="#A54665" stop-opacity="1"></stop><stop data-v-fde0c5aa="" offset="100%" stop-color="#ADBDE0" stop-opacity="1"></stop></linearGradient></defs><g data-v-fde0c5aa="" id="fb91a58e-b2fc-48a8-aee8-8e15e5d8af9f" fill="url(#3920bcec-cb67-40a2-b4b5-68c99fa65ef5)" stroke="none" transform="matrix(2.2222222222222223,0,0,2.2222222222222223,38.231107923719605,38.888888888888886)"><path d="M89.654.5l-6.322.069s-8.452 20.399-16.91 40.895L50.255.925 34.171 41.249C25.742 20.828 17.35.569 17.35.569L11.027.5l19.697 49.391L10.938 99.5l6.327-.07s8.452-20.396 16.911-40.894l16.163 40.539L66.425 58.75c8.427 20.422 16.818 40.68 16.818 40.68l6.327.07-19.701-49.39L89.654.5zM50.338 80.691c-1.958-4.908-7.017-17.239-12.604-30.799 5.554-13.469 10.572-25.701 12.521-30.583 1.958 4.908 7.021 17.239 12.604 30.798-5.55 13.471-10.568 25.702-12.521 30.584z"></path></g><!----></svg>