<svg data-v-423bf9ae="" xmlns="http://www.w3.org/2000/svg" viewBox="0 0 47.70666873816288 60" class="icon"><!----><!----><!----><!----><g data-v-423bf9ae="" id="c05389a8-9498-4f12-b9db-e747cce5a308" transform="matrix(0.6060606060606061,0,0,0.6060606060606061,-6.629090684832949,-0.30303030303030454)" stroke="none" fill="white"><path d="M89.654.5l-6.322.069s-8.452 20.399-16.91 40.895L50.255.925 34.171 41.249C25.742 20.828 17.35.569 17.35.569L11.027.5l19.697 49.391L10.938 99.5l6.327-.07s8.452-20.396 16.911-40.894l16.163 40.539L66.425 58.75c8.427 20.422 16.818 40.68 16.818 40.68l6.327.07-19.701-49.39L89.654.5zM50.338 80.691c-1.958-4.908-7.017-17.239-12.604-30.799 5.554-13.469 10.572-25.701 12.521-30.583 1.958 4.908 7.021 17.239 12.604 30.798-5.55 13.471-10.568 25.702-12.521 30.584z"></path></g><!----></svg>